<mxfile host="app.diagrams.net" agent="Mozilla/5.0 (Windows NT 10.0; Win64; x64) AppleWebKit/537.36 (KHTML, like Gecko) Chrome/131.0.0.0 Safari/537.36" version="25.0.3">
  <diagram id="qerxKZr1Ei3fPYVJZZeS" name="Barker">
    <mxGraphModel dx="2234" dy="1138" grid="0" gridSize="10" guides="1" tooltips="1" connect="1" arrows="1" fold="1" page="0" pageScale="1" pageWidth="827" pageHeight="1169" math="0" shadow="0">
      <root>
        <mxCell id="0" />
        <mxCell id="1" parent="0" />
        <mxCell id="XC2x0yPJV3IWESj_jdwo-9" style="edgeStyle=orthogonalEdgeStyle;rounded=0;orthogonalLoop=1;jettySize=auto;html=1;exitX=0.75;exitY=0;exitDx=0;exitDy=0;entryX=1;entryY=0.25;entryDx=0;entryDy=0;endArrow=ERmany;endFill=0;dashed=1;" parent="1" source="FCepN5DByuie_m1uyZlf-1" target="FCepN5DByuie_m1uyZlf-1" edge="1">
          <mxGeometry relative="1" as="geometry">
            <mxPoint x="-450" y="19" as="targetPoint" />
            <Array as="points">
              <mxPoint x="-514" y="-79" />
              <mxPoint x="-405" y="-79" />
              <mxPoint x="-405" y="55" />
            </Array>
          </mxGeometry>
        </mxCell>
        <mxCell id="XC2x0yPJV3IWESj_jdwo-14" style="edgeStyle=orthogonalEdgeStyle;rounded=0;orthogonalLoop=1;jettySize=auto;html=1;exitX=1;exitY=0.5;exitDx=0;exitDy=0;entryX=0;entryY=0.5;entryDx=0;entryDy=0;endArrow=ERmany;endFill=0;jumpStyle=none;jumpSize=6;dashed=1;" parent="1" source="FCepN5DByuie_m1uyZlf-1" target="XC2x0yPJV3IWESj_jdwo-12" edge="1">
          <mxGeometry relative="1" as="geometry" />
        </mxCell>
        <mxCell id="XC2x0yPJV3IWESj_jdwo-23" style="edgeStyle=orthogonalEdgeStyle;rounded=0;orthogonalLoop=1;jettySize=auto;html=1;exitX=0.5;exitY=1;exitDx=0;exitDy=0;entryX=0.5;entryY=0;entryDx=0;entryDy=0;endArrow=ERmany;endFill=0;" parent="1" source="FCepN5DByuie_m1uyZlf-1" target="XC2x0yPJV3IWESj_jdwo-18" edge="1">
          <mxGeometry relative="1" as="geometry" />
        </mxCell>
        <mxCell id="h-mq_jQu_FYGlrBRU6wF-2" style="edgeStyle=orthogonalEdgeStyle;rounded=0;orthogonalLoop=1;jettySize=auto;html=1;endArrow=none;endFill=0;" parent="1" source="FCepN5DByuie_m1uyZlf-1" edge="1">
          <mxGeometry relative="1" as="geometry">
            <mxPoint x="-372" y="143" as="targetPoint" />
          </mxGeometry>
        </mxCell>
        <mxCell id="h-mq_jQu_FYGlrBRU6wF-4" style="edgeStyle=orthogonalEdgeStyle;rounded=0;orthogonalLoop=1;jettySize=auto;html=1;exitX=0.75;exitY=0;exitDx=0;exitDy=0;endArrow=none;endFill=0;" parent="1" source="FCepN5DByuie_m1uyZlf-1" edge="1">
          <mxGeometry relative="1" as="geometry">
            <mxPoint x="-404" y="-79" as="targetPoint" />
            <Array as="points">
              <mxPoint x="-514" y="-79" />
            </Array>
          </mxGeometry>
        </mxCell>
        <mxCell id="FCepN5DByuie_m1uyZlf-1" value="Uzytkownik" style="swimlane;fontFamily=Helvetica;fontSize=12;fontColor=default;labelBackgroundColor=default;startSize=23;" parent="1" vertex="1">
          <mxGeometry x="-664" y="-33" width="200" height="352" as="geometry" />
        </mxCell>
        <mxCell id="K1pmuEr_VnnFQzgwdbzQ-3" value="Klient" style="swimlane;fontStyle=0;childLayout=stackLayout;horizontal=1;startSize=26;fillColor=none;horizontalStack=0;resizeParent=1;resizeParentMax=0;resizeLast=0;collapsible=1;marginBottom=0;html=1;fontFamily=Helvetica;fontSize=12;fontColor=default;labelBackgroundColor=default;" parent="FCepN5DByuie_m1uyZlf-1" vertex="1">
          <mxGeometry x="15" y="136" width="140" height="78" as="geometry" />
        </mxCell>
        <mxCell id="K1pmuEr_VnnFQzgwdbzQ-4" value="#* IdKlient" style="text;strokeColor=none;fillColor=none;align=left;verticalAlign=top;spacingLeft=4;spacingRight=4;overflow=hidden;rotatable=0;points=[[0,0.5],[1,0.5]];portConstraint=eastwest;whiteSpace=wrap;html=1;fontFamily=Helvetica;fontSize=12;fontColor=default;labelBackgroundColor=default;" parent="K1pmuEr_VnnFQzgwdbzQ-3" vertex="1">
          <mxGeometry y="26" width="140" height="26" as="geometry" />
        </mxCell>
        <mxCell id="K1pmuEr_VnnFQzgwdbzQ-5" value="O Adres" style="text;strokeColor=none;fillColor=none;align=left;verticalAlign=top;spacingLeft=4;spacingRight=4;overflow=hidden;rotatable=0;points=[[0,0.5],[1,0.5]];portConstraint=eastwest;whiteSpace=wrap;html=1;fontFamily=Helvetica;fontSize=12;fontColor=default;labelBackgroundColor=default;" parent="K1pmuEr_VnnFQzgwdbzQ-3" vertex="1">
          <mxGeometry y="52" width="140" height="26" as="geometry" />
        </mxCell>
        <mxCell id="4W8WNq4PfUQvucT-pFMD-1" value="&lt;div style=&quot;text-align: left;&quot;&gt;#*&amp;nbsp; IdUzytkownik&lt;/div&gt;&lt;div style=&quot;text-align: left;&quot;&gt;* TypUzytkownika&lt;/div&gt;&lt;div style=&quot;text-align: left;&quot;&gt;O Imie&lt;/div&gt;&lt;div style=&quot;text-align: left;&quot;&gt;O Nazwisko&lt;/div&gt;&lt;div style=&quot;text-align: left;&quot;&gt;O Email&lt;/div&gt;&lt;div style=&quot;text-align: left;&quot;&gt;O Telefon&lt;/div&gt;" style="text;html=1;align=center;verticalAlign=middle;resizable=0;points=[];autosize=1;strokeColor=none;fillColor=none;fontSize=12;fontFamily=Helvetica;fontColor=default;labelBackgroundColor=default;" parent="FCepN5DByuie_m1uyZlf-1" vertex="1">
          <mxGeometry x="6" y="34" width="112" height="98" as="geometry" />
        </mxCell>
        <mxCell id="XC2x0yPJV3IWESj_jdwo-1" value="Kurier" style="swimlane;fontStyle=0;childLayout=stackLayout;horizontal=1;startSize=26;fillColor=none;horizontalStack=0;resizeParent=1;resizeParentMax=0;resizeLast=0;collapsible=1;marginBottom=0;html=1;fontFamily=Helvetica;fontSize=12;fontColor=default;labelBackgroundColor=default;" parent="FCepN5DByuie_m1uyZlf-1" vertex="1">
          <mxGeometry x="15" y="226" width="140" height="104" as="geometry" />
        </mxCell>
        <mxCell id="XC2x0yPJV3IWESj_jdwo-2" value="#* IdKurier" style="text;strokeColor=none;fillColor=none;align=left;verticalAlign=top;spacingLeft=4;spacingRight=4;overflow=hidden;rotatable=0;points=[[0,0.5],[1,0.5]];portConstraint=eastwest;whiteSpace=wrap;html=1;fontFamily=Helvetica;fontSize=12;fontColor=default;labelBackgroundColor=default;" parent="XC2x0yPJV3IWESj_jdwo-1" vertex="1">
          <mxGeometry y="26" width="140" height="26" as="geometry" />
        </mxCell>
        <mxCell id="XC2x0yPJV3IWESj_jdwo-3" value="O&amp;nbsp; Stanowisko" style="text;strokeColor=none;fillColor=none;align=left;verticalAlign=top;spacingLeft=4;spacingRight=4;overflow=hidden;rotatable=0;points=[[0,0.5],[1,0.5]];portConstraint=eastwest;whiteSpace=wrap;html=1;fontFamily=Helvetica;fontSize=12;fontColor=default;labelBackgroundColor=default;" parent="XC2x0yPJV3IWESj_jdwo-1" vertex="1">
          <mxGeometry y="52" width="140" height="26" as="geometry" />
        </mxCell>
        <mxCell id="XC2x0yPJV3IWESj_jdwo-4" value="O PrzelozonyId" style="text;strokeColor=none;fillColor=none;align=left;verticalAlign=top;spacingLeft=4;spacingRight=4;overflow=hidden;rotatable=0;points=[[0,0.5],[1,0.5]];portConstraint=eastwest;whiteSpace=wrap;html=1;fontFamily=Helvetica;fontSize=12;fontColor=default;labelBackgroundColor=default;" parent="XC2x0yPJV3IWESj_jdwo-1" vertex="1">
          <mxGeometry y="78" width="140" height="26" as="geometry" />
        </mxCell>
        <mxCell id="XC2x0yPJV3IWESj_jdwo-5" value="Faktura" style="swimlane;whiteSpace=wrap;html=1;" parent="1" vertex="1">
          <mxGeometry x="-311" y="234" width="200" height="110" as="geometry" />
        </mxCell>
        <mxCell id="XC2x0yPJV3IWESj_jdwo-7" value="#* IdFaktura&lt;div&gt;* IdKlient&lt;/div&gt;&lt;div&gt;* DataWystawienia&lt;/div&gt;&lt;div&gt;* Kwota&lt;/div&gt;&lt;div&gt;O StatusPlatnosci&lt;/div&gt;" style="text;html=1;align=left;verticalAlign=top;resizable=0;points=[];autosize=1;strokeColor=none;fillColor=none;" parent="XC2x0yPJV3IWESj_jdwo-5" vertex="1">
          <mxGeometry x="3" y="26" width="119" height="84" as="geometry" />
        </mxCell>
        <mxCell id="XC2x0yPJV3IWESj_jdwo-8" value="" style="edgeStyle=entityRelationEdgeStyle;fontSize=12;html=1;endArrow=ERmany;rounded=0;exitX=1;exitY=0.75;exitDx=0;exitDy=0;entryX=0;entryY=0.5;entryDx=0;entryDy=0;dashed=1;" parent="1" source="FCepN5DByuie_m1uyZlf-1" target="XC2x0yPJV3IWESj_jdwo-5" edge="1">
          <mxGeometry width="100" height="100" relative="1" as="geometry">
            <mxPoint x="-200" y="336" as="sourcePoint" />
            <mxPoint x="-100" y="236" as="targetPoint" />
          </mxGeometry>
        </mxCell>
        <mxCell id="XC2x0yPJV3IWESj_jdwo-10" value="Podlega&lt;div&gt;(kurier)&lt;/div&gt;" style="text;html=1;align=center;verticalAlign=middle;resizable=0;points=[];autosize=1;strokeColor=none;fillColor=none;" parent="1" vertex="1">
          <mxGeometry x="-456" y="53" width="62" height="41" as="geometry" />
        </mxCell>
        <mxCell id="XC2x0yPJV3IWESj_jdwo-11" value="&lt;div&gt;Zarządza&lt;/div&gt;(przełożony)" style="text;html=1;align=center;verticalAlign=middle;resizable=0;points=[];autosize=1;strokeColor=none;fillColor=none;" parent="1" vertex="1">
          <mxGeometry x="-525" y="-119" width="84" height="41" as="geometry" />
        </mxCell>
        <mxCell id="XC2x0yPJV3IWESj_jdwo-12" value="Paczka" style="swimlane;whiteSpace=wrap;html=1;" parent="1" vertex="1">
          <mxGeometry x="-288" y="73" width="200" height="140" as="geometry" />
        </mxCell>
        <mxCell id="XC2x0yPJV3IWESj_jdwo-13" value="#* IdPaczka&lt;div&gt;* NumerTrackingowy&lt;/div&gt;&lt;div&gt;O Waga&lt;/div&gt;&lt;div&gt;O Wymiary&lt;/div&gt;&lt;div&gt;O Status&lt;/div&gt;&lt;div&gt;* IdKlientNadawca&lt;/div&gt;&lt;div&gt;* IdKlientOdbiorca&lt;/div&gt;" style="text;html=1;align=left;verticalAlign=top;resizable=0;points=[];autosize=1;strokeColor=none;fillColor=none;" parent="XC2x0yPJV3IWESj_jdwo-12" vertex="1">
          <mxGeometry x="3" y="26" width="129" height="113" as="geometry" />
        </mxCell>
        <mxCell id="XC2x0yPJV3IWESj_jdwo-15" value="Wysyła" style="text;html=1;align=center;verticalAlign=middle;resizable=0;points=[];autosize=1;strokeColor=none;fillColor=none;" parent="1" vertex="1">
          <mxGeometry x="-345" y="144" width="57" height="26" as="geometry" />
        </mxCell>
        <mxCell id="XC2x0yPJV3IWESj_jdwo-17" value="Odbiera" style="text;html=1;align=center;verticalAlign=middle;resizable=0;points=[];autosize=1;strokeColor=none;fillColor=none;" parent="1" vertex="1">
          <mxGeometry x="-351" y="118" width="61" height="26" as="geometry" />
        </mxCell>
        <mxCell id="XC2x0yPJV3IWESj_jdwo-18" value="Jezyk" style="swimlane;whiteSpace=wrap;html=1;" parent="1" vertex="1">
          <mxGeometry x="-664" y="390" width="200" height="72" as="geometry" />
        </mxCell>
        <mxCell id="XC2x0yPJV3IWESj_jdwo-19" value="#* IdKurier&lt;div&gt;* Jezyk&lt;/div&gt;" style="text;html=1;align=left;verticalAlign=top;resizable=0;points=[];autosize=1;strokeColor=none;fillColor=none;" parent="XC2x0yPJV3IWESj_jdwo-18" vertex="1">
          <mxGeometry x="3" y="26" width="75" height="41" as="geometry" />
        </mxCell>
        <mxCell id="XC2x0yPJV3IWESj_jdwo-21" value="zna" style="text;html=1;align=center;verticalAlign=middle;resizable=0;points=[];autosize=1;strokeColor=none;fillColor=none;" parent="1" vertex="1">
          <mxGeometry x="-562" y="361" width="37" height="26" as="geometry" />
        </mxCell>
        <mxCell id="XC2x0yPJV3IWESj_jdwo-24" value="Posiada" style="text;html=1;align=center;verticalAlign=middle;resizable=0;points=[];autosize=1;strokeColor=none;fillColor=none;" parent="1" vertex="1">
          <mxGeometry x="-367" y="291" width="61" height="26" as="geometry" />
        </mxCell>
        <mxCell id="XC2x0yPJV3IWESj_jdwo-25" value="jest &lt;br&gt;przypisana do" style="text;html=1;align=center;verticalAlign=middle;resizable=0;points=[];autosize=1;strokeColor=none;fillColor=none;" parent="1" vertex="1">
          <mxGeometry x="-464" y="190" width="93" height="41" as="geometry" />
        </mxCell>
        <mxCell id="XC2x0yPJV3IWESj_jdwo-33" style="edgeStyle=orthogonalEdgeStyle;rounded=0;orthogonalLoop=1;jettySize=auto;html=1;entryX=0.5;entryY=0;entryDx=0;entryDy=0;exitX=0.5;exitY=1;exitDx=0;exitDy=0;startArrow=ERmany;startFill=0;endArrow=none;endFill=0;" parent="1" source="XC2x0yPJV3IWESj_jdwo-26" target="XC2x0yPJV3IWESj_jdwo-31" edge="1">
          <mxGeometry relative="1" as="geometry">
            <mxPoint x="218" y="235" as="sourcePoint" />
          </mxGeometry>
        </mxCell>
        <mxCell id="XC2x0yPJV3IWESj_jdwo-26" value="Przewoz" style="swimlane;whiteSpace=wrap;html=1;startSize=23;" parent="1" vertex="1">
          <mxGeometry x="86" y="81" width="200" height="124" as="geometry" />
        </mxCell>
        <mxCell id="XC2x0yPJV3IWESj_jdwo-27" value="#* IdPrzewoz&lt;div&gt;* IdPaczka&lt;/div&gt;&lt;div&gt;* IdMagazynStart&lt;/div&gt;&lt;div&gt;* IdMagazynKoniec&lt;/div&gt;&lt;div&gt;O DataTransportu&lt;/div&gt;&lt;div&gt;O Odleglosc&lt;/div&gt;" style="text;html=1;align=left;verticalAlign=top;resizable=0;points=[];autosize=1;strokeColor=none;fillColor=none;" parent="XC2x0yPJV3IWESj_jdwo-26" vertex="1">
          <mxGeometry x="3" y="26" width="121" height="98" as="geometry" />
        </mxCell>
        <mxCell id="XC2x0yPJV3IWESj_jdwo-30" style="edgeStyle=orthogonalEdgeStyle;rounded=0;orthogonalLoop=1;jettySize=auto;html=1;entryX=1;entryY=0.5;entryDx=0;entryDy=0;exitX=0;exitY=0.5;exitDx=0;exitDy=0;endArrow=ERmany;endFill=0;" parent="1" source="XC2x0yPJV3IWESj_jdwo-26" target="XC2x0yPJV3IWESj_jdwo-12" edge="1">
          <mxGeometry relative="1" as="geometry" />
        </mxCell>
        <mxCell id="XC2x0yPJV3IWESj_jdwo-31" value="Magazyn" style="swimlane;whiteSpace=wrap;html=1;" parent="1" vertex="1">
          <mxGeometry x="86" y="293" width="200" height="96" as="geometry" />
        </mxCell>
        <mxCell id="XC2x0yPJV3IWESj_jdwo-32" value="#* IdMagazyn&lt;div&gt;O Nazwa&lt;/div&gt;&lt;div&gt;O Adres&lt;/div&gt;&lt;div&gt;O Pojemnosc&lt;/div&gt;" style="text;html=1;align=left;verticalAlign=top;resizable=0;points=[];autosize=1;strokeColor=none;fillColor=none;" parent="XC2x0yPJV3IWESj_jdwo-31" vertex="1">
          <mxGeometry x="3" y="26" width="91" height="70" as="geometry" />
        </mxCell>
        <mxCell id="XC2x0yPJV3IWESj_jdwo-34" value="jedzie&amp;nbsp; z" style="text;html=1;align=center;verticalAlign=middle;resizable=0;points=[];autosize=1;strokeColor=none;fillColor=none;" parent="1" vertex="1">
          <mxGeometry x="186" y="267" width="62" height="26" as="geometry" />
        </mxCell>
        <mxCell id="XC2x0yPJV3IWESj_jdwo-35" value="jedzie do" style="text;html=1;align=center;verticalAlign=middle;resizable=0;points=[];autosize=1;strokeColor=none;fillColor=none;" parent="1" vertex="1">
          <mxGeometry x="120" y="205" width="66" height="26" as="geometry" />
        </mxCell>
        <mxCell id="h-mq_jQu_FYGlrBRU6wF-5" value="" style="endArrow=none;html=1;rounded=0;entryX=0.902;entryY=-0.077;entryDx=0;entryDy=0;entryPerimeter=0;" parent="1" edge="1">
          <mxGeometry width="50" height="50" relative="1" as="geometry">
            <mxPoint x="-464" y="231" as="sourcePoint" />
            <mxPoint x="-391.97800000000007" y="256.99800000000005" as="targetPoint" />
            <Array as="points">
              <mxPoint x="-434" y="231" />
            </Array>
          </mxGeometry>
        </mxCell>
      </root>
    </mxGraphModel>
  </diagram>
</mxfile>
